<?xml version="1.0" encoding="iso-8859-1"?>
<!-- Generator: Adobe Illustrator 19.0.0, SVG Export Plug-In . SVG Version: 6.00 Build 0)  -->
<svg version="1.1" id="Layer_1" xmlns="http://www.w3.org/2000/svg" xmlns:xlink="http://www.w3.org/1999/xlink" x="0px" y="0px"
	 viewBox="0 0 511.999 511.999" style="enable-background:new 0 0 511.999 511.999;" xml:space="preserve">
<g>
	<g>
		<path d="M432.005,286.826H381.43l-59.387-127.263c0.418-3.013,0.651-6.084,0.651-9.21c0-28.194-17.594-52.34-42.371-62.082V10.199
			C280.322,4.567,275.755,0,270.123,0h-28.249c-5.632,0-10.199,4.567-10.199,10.199v78.07
			c-24.778,9.742-42.371,33.889-42.371,62.082c0,3.126,0.233,6.198,0.651,9.211l-59.386,127.263H79.994
			c-5.632,0-10.199,4.567-10.199,10.199c0,5.632,4.567,10.199,10.199,10.199h41.057l-8.079,17.313
			c-7.902,16.933-8.737,35.93-2.352,53.488c5.209,14.324,14.715,26.289,27.231,34.503l-39.645,84.957
			c-2.383,5.105-0.175,11.173,4.929,13.555c1.394,0.652,2.862,0.959,4.306,0.959c3.841,0,7.519-2.18,9.249-5.888l92.81-198.888
			h30.18c5.632,0,10.199-4.567,10.199-10.199s-4.567-10.199-10.199-10.199h-20.661l32.635-69.935
			c1.438,0.093,2.884,0.157,4.346,0.157s2.908-0.064,4.346-0.157L395.31,506.111c1.731,3.71,5.409,5.888,9.249,5.888
			c1.443,0,2.911-0.308,4.306-0.959c5.105-2.382,7.312-8.45,4.929-13.555l-39.645-84.958c12.515-8.213,22.022-20.18,27.231-34.503
			c6.386-17.561,5.55-36.557-2.352-53.489l-8.079-17.313h41.057c5.632,0,10.199-4.567,10.199-10.199
			C442.205,291.392,437.638,286.826,432.005,286.826z M252.074,20.398h7.85v62.173h-7.85V20.398z M146.606,393.765
			c-7.647-5.715-13.477-13.53-16.815-22.711c-4.525-12.44-3.934-25.896,1.664-37.892l12.104-25.938h43.431L146.606,393.765z
			 M196.509,286.825h-43.431l46.858-100.415c7.47,11.574,18.417,20.693,31.358,25.874L196.509,286.825z M256,196.65
			c-25.529,0-46.297-20.77-46.297-46.298c0-25.527,20.769-46.297,46.297-46.297s46.297,20.769,46.297,46.297
			S281.528,196.65,256,196.65z M382.209,371.055c-3.338,9.181-9.168,16.997-16.815,22.711l-84.689-181.481
			c12.942-5.181,23.887-14.3,31.357-25.874l68.481,146.752C386.142,345.158,386.733,358.614,382.209,371.055z"/>
	</g>
</g>
<g>
	<g>
		<path d="M274.358,286.826h-4.08c-5.632,0-10.199,4.567-10.199,10.199c0,5.632,4.567,10.199,10.199,10.199h4.08
			c5.632,0,10.199-4.567,10.199-10.199C284.557,291.393,279.99,286.826,274.358,286.826z"/>
	</g>
</g>
<g>
	<g>
		<path d="M256,123.857c-14.609,0-26.496,11.886-26.496,26.496s11.886,26.496,26.496,26.496s26.496-11.886,26.496-26.496
			C282.495,135.743,270.609,123.857,256,123.857z M256,156.451c-3.363,0-6.098-2.736-6.098-6.098c0-3.362,2.735-6.098,6.098-6.098
			s6.098,2.735,6.098,6.098C262.098,153.716,259.362,156.451,256,156.451z"/>
	</g>
</g>
<g>
</g>
<g>
</g>
<g>
</g>
<g>
</g>
<g>
</g>
<g>
</g>
<g>
</g>
<g>
</g>
<g>
</g>
<g>
</g>
<g>
</g>
<g>
</g>
<g>
</g>
<g>
</g>
<g>
</g>
</svg>
